<mxfile host="" modified="2020-06-11T01:37:35.489Z" agent="5.0 (Windows NT 6.1; Win64; x64) AppleWebKit/537.36 (KHTML, like Gecko) Code/1.45.1 Chrome/78.0.3904.130 Electron/7.2.4 Safari/537.36" etag="vyNAiTlTMvtQxfDpXEJ2" version="13.1.3" pages="2">
    <diagram id="6hGFLwfOUW9BJ-s0fimq" name="Page-1">
        <mxGraphModel dx="1236" dy="792" grid="1" gridSize="10" guides="1" tooltips="1" connect="1" arrows="1" fold="1" page="1" pageScale="1" pageWidth="827" pageHeight="1169" math="0" shadow="0">
            <root>
                <mxCell id="0"/>
                <mxCell id="1" parent="0"/>
                <mxCell id="7" value="Person&lt;br&gt;构造函数" style="ellipse;whiteSpace=wrap;html=1;" vertex="1" parent="1">
                    <mxGeometry x="80" y="160" width="130" height="80" as="geometry"/>
                </mxCell>
                <mxCell id="8" value="Person.prototype&lt;br&gt;原型" style="ellipse;whiteSpace=wrap;html=1;" vertex="1" parent="1">
                    <mxGeometry x="380" y="160" width="120" height="80" as="geometry"/>
                </mxCell>
                <mxCell id="18" value="" style="edgeStyle=elbowEdgeStyle;elbow=horizontal;endArrow=classic;html=1;exitX=0.5;exitY=0;exitDx=0;exitDy=0;entryX=0.5;entryY=0;entryDx=0;entryDy=0;" edge="1" parent="1" source="7" target="8">
                    <mxGeometry width="50" height="50" relative="1" as="geometry">
                        <mxPoint x="140" y="140" as="sourcePoint"/>
                        <mxPoint x="440" y="120" as="targetPoint"/>
                        <Array as="points">
                            <mxPoint x="420" y="140"/>
                            <mxPoint x="440" y="150"/>
                            <mxPoint x="140" y="130"/>
                        </Array>
                    </mxGeometry>
                </mxCell>
                <mxCell id="19" value="prototype" style="text;html=1;strokeColor=none;fillColor=none;align=center;verticalAlign=middle;whiteSpace=wrap;rounded=0;" vertex="1" parent="1">
                    <mxGeometry x="260" y="110" width="40" height="20" as="geometry"/>
                </mxCell>
            </root>
        </mxGraphModel>
    </diagram>
    <diagram id="YAf5hss5xR6fQ4djpWzy" name="第 2 页">
        &#xa;        &#xa;        &#xa;        
        <mxGraphModel dx="996" dy="792" grid="1" gridSize="10" guides="1" tooltips="1" connect="1" arrows="1" fold="1" page="1" pageScale="1" pageWidth="827" pageHeight="1169" math="0" shadow="0">
            &#xa;            &#xa;            &#xa;            
            <root>
                &#xa;                &#xa;                &#xa;                
                <mxCell id="_VWC0r2iRdr6Les_3klV-0"/>
                &#xa;                &#xa;                &#xa;                
                <mxCell id="_VWC0r2iRdr6Les_3klV-1" parent="_VWC0r2iRdr6Les_3klV-0"/>
                &#xa;                &#xa;            &#xa;            
            </root>
            &#xa;            &#xa;        &#xa;        
        </mxGraphModel>
        &#xa;        &#xa;    &#xa;    
    </diagram>
</mxfile>